# xmcd
#
# Track frame offsets: 
#        150
#        18852
#        38459
#        57134
#        75077
#        104632
#        126964
#        159772
#        183752
#        204044
#
# Disc length: 2936 seconds
#
# Revision: 2
# Processed by: cddbd v1.5.2PL0 Copyright (c) Steve Scherf et al.
# Submitted via: ExactAudioCopy v1.0b3
#
DISCID=620b760a
DTITLE=Robert Cray - The Best of Robert Cray
DYEAR=2002
DGENRE=Blues
TTITLE0=Smoking Gun
TTITLE1=Right Next Door (Because of Me)
TTITLE2=Bouncin' Back
TTITLE3=Don't You Even Care
TTITLE4=Holdin' On
TTITLE5=These Things
TTITLE6=I Was Warned
TTITLE7=The One in the Middle
TTITLE8=Some Pain, Some Shame
TTITLE9=You're Gonna Need Me
EXTD=YEAR: 2002
EXTT0=
EXTT1=
EXTT2=
EXTT3=
EXTT4=
EXTT5=
EXTT6=
EXTT7=
EXTT8=
EXTT9=
PLAYORDER=
